<svg height="1598" width="720" xmlns="http://www.w3.org/2000/svg">
<rect height="1598" fill="#555" width="720"></rect>
<text fill="#7f7" font-family="Courier New" font-size="12" xml:space="preserve">
<tspan x="10" y="26">25 megabytes installed</tspan>
<tspan x="10" y="42"></tspan>
<tspan x="10" y="58">node_modules</tspan>
<tspan x="10" y="74">└─┬ downpress@0.1.21 </tspan>
<tspan x="10" y="90">  ├── colors@0.6.2 </tspan>
<tspan x="10" y="106">  ├─┬ connect@2.14.3 </tspan>
<tspan x="10" y="122">  │ ├── basic-auth-connect@1.0.0 </tspan>
<tspan x="10" y="138">  │ ├── bytes@0.2.1 </tspan>
<tspan x="10" y="154">  │ ├─┬ compression@1.0.0 </tspan>
<tspan x="10" y="170">  │ │ ├── compressible@1.0.0 </tspan>
<tspan x="10" y="186">  │ │ └── negotiator@0.3.0 </tspan>
<tspan x="10" y="202">  │ ├── connect-timeout@1.0.0 </tspan>
<tspan x="10" y="218">  │ ├─┬ cookie-parser@1.0.1 </tspan>
<tspan x="10" y="234">  │ │ └── cookie@0.1.0 </tspan>
<tspan x="10" y="250">  │ ├── cookie-signature@1.0.3 </tspan>
<tspan x="10" y="266">  │ ├─┬ csurf@1.0.0 </tspan>
<tspan x="10" y="282">  │ │ └── uid2@0.0.3 </tspan>
<tspan x="10" y="298">  │ ├── debug@0.8.1 </tspan>
<tspan x="10" y="314">  │ ├── errorhandler@1.0.0 </tspan>
<tspan x="10" y="330">  │ ├─┬ express-session@1.0.2 </tspan>
<tspan x="10" y="346">  │ │ ├── buffer-crc32@0.2.1 </tspan>
<tspan x="10" y="362">  │ │ ├── debug@0.7.4 </tspan>
<tspan x="10" y="378">  │ │ └── utils-merge@1.0.0 </tspan>
<tspan x="10" y="394">  │ ├── fresh@0.2.2 </tspan>
<tspan x="10" y="410">  │ ├─┬ method-override@1.0.0 </tspan>
<tspan x="10" y="426">  │ │ └── methods@1.1.2 </tspan>
<tspan x="10" y="442">  │ ├── morgan@1.0.0 </tspan>
<tspan x="10" y="458">  │ ├─┬ multiparty@2.2.0 </tspan>
<tspan x="10" y="474">  │ │ ├─┬ readable-stream@1.1.14 </tspan>
<tspan x="10" y="490">  │ │ │ ├── core-util-is@1.0.2 </tspan>
<tspan x="10" y="506">  │ │ │ ├── inherits@2.0.3 </tspan>
<tspan x="10" y="522">  │ │ │ ├── isarray@0.0.1 </tspan>
<tspan x="10" y="538">  │ │ │ └── string_decoder@0.10.31 </tspan>
<tspan x="10" y="554">  │ │ └── stream-counter@0.2.0 </tspan>
<tspan x="10" y="570">  │ ├── pause@0.0.1 </tspan>
<tspan x="10" y="586">  │ ├── qs@0.6.6 </tspan>
<tspan x="10" y="602">  │ ├── raw-body@1.1.3 </tspan>
<tspan x="10" y="618">  │ ├── response-time@1.0.0 </tspan>
<tspan x="10" y="634">  │ ├─┬ serve-index@1.0.1 </tspan>
<tspan x="10" y="650">  │ │ ├── batch@0.5.0 </tspan>
<tspan x="10" y="666">  │ │ └── negotiator@0.4.2 </tspan>
<tspan x="10" y="682">  │ ├─┬ serve-static@1.0.2 </tspan>
<tspan x="10" y="698">  │ │ └─┬ send@0.2.0 </tspan>
<tspan x="10" y="714">  │ │   ├── mime@1.2.11 </tspan>
<tspan x="10" y="730">  │ │   └── range-parser@1.0.3 </tspan>
<tspan x="10" y="746">  │ ├── static-favicon@1.0.2 </tspan>
<tspan x="10" y="762">  │ └── vhost@1.0.0 </tspan>
<tspan x="10" y="778">  ├── filequeue@0.5.0 </tspan>
<tspan x="10" y="794">  ├─┬ fs-extra@0.8.1 </tspan>
<tspan x="10" y="810">  │ ├── jsonfile@1.1.1 </tspan>
<tspan x="10" y="826">  │ ├── mkdirp@0.3.5 </tspan>
<tspan x="10" y="842">  │ ├── ncp@0.4.2 </tspan>
<tspan x="10" y="858">  │ └── rimraf@2.2.8 </tspan>
<tspan x="10" y="874">  ├─┬ gaze@0.5.1 </tspan>
<tspan x="10" y="890">  │ └─┬ globule@0.1.0 </tspan>
<tspan x="10" y="906">  │   ├── lodash@1.0.2 </tspan>
<tspan x="10" y="922">  │   └─┬ minimatch@0.2.14 </tspan>
<tspan x="10" y="938">  │     ├── lru-cache@2.7.3 </tspan>
<tspan x="10" y="954">  │     └── sigmund@1.0.1 </tspan>
<tspan x="10" y="970">  ├─┬ markdown@0.5.0 </tspan>
<tspan x="10" y="986">  │ └─┬ nopt@2.1.2 </tspan>
<tspan x="10" y="1002">  │   └── abbrev@1.1.0 </tspan>
<tspan x="10" y="1018">  ├─┬ node-minify@0.10.2 </tspan>
<tspan x="10" y="1034">  │ ├─┬ clean-css@2.2.23 </tspan>
<tspan x="10" y="1050">  │ │ └── commander@2.2.0 </tspan>
<tspan x="10" y="1066">  │ ├─┬ csso@1.8.2 </tspan>
<tspan x="10" y="1082">  │ │ ├─┬ clap@1.1.3 </tspan>
<tspan x="10" y="1098">  │ │ │ └─┬ chalk@1.1.3 </tspan>
<tspan x="10" y="1114">  │ │ │   ├── ansi-styles@2.2.1 </tspan>
<tspan x="10" y="1130">  │ │ │   ├── escape-string-regexp@1.0.5 </tspan>
<tspan x="10" y="1146">  │ │ │   ├─┬ has-ansi@2.0.0 </tspan>
<tspan x="10" y="1162">  │ │ │   │ └── ansi-regex@2.1.1 </tspan>
<tspan x="10" y="1178">  │ │ │   ├── strip-ansi@3.0.1 </tspan>
<tspan x="10" y="1194">  │ │ │   └── supports-color@2.0.0 </tspan>
<tspan x="10" y="1210">  │ │ └── source-map@0.5.6 </tspan>
<tspan x="10" y="1226">  │ ├─┬ glob@3.1.21 </tspan>
<tspan x="10" y="1242">  │ │ ├── graceful-fs@1.2.3 </tspan>
<tspan x="10" y="1258">  │ │ └── inherits@1.0.2 </tspan>
<tspan x="10" y="1274">  │ ├── sqwish@0.2.2 </tspan>
<tspan x="10" y="1290">  │ └─┬ uglify-js@2.8.22 </tspan>
<tspan x="10" y="1306">  │   ├── uglify-to-browserify@1.0.2 </tspan>
<tspan x="10" y="1322">  │   └─┬ yargs@3.10.0 </tspan>
<tspan x="10" y="1338">  │     ├── camelcase@1.2.1 </tspan>
<tspan x="10" y="1354">  │     ├─┬ cliui@2.1.0 </tspan>
<tspan x="10" y="1370">  │     │ ├─┬ center-align@0.1.3 </tspan>
<tspan x="10" y="1386">  │     │ │ ├─┬ align-text@0.1.4 </tspan>
<tspan x="10" y="1402">  │     │ │ │ ├─┬ kind-of@3.1.0 </tspan>
<tspan x="10" y="1418">  │     │ │ │ │ └── is-buffer@1.1.5 </tspan>
<tspan x="10" y="1434">  │     │ │ │ ├── longest@1.0.1 </tspan>
<tspan x="10" y="1450">  │     │ │ │ └── repeat-string@1.6.1 </tspan>
<tspan x="10" y="1466">  │     │ │ └── lazy-cache@1.0.4 </tspan>
<tspan x="10" y="1482">  │     │ ├── right-align@0.1.3 </tspan>
<tspan x="10" y="1498">  │     │ └── wordwrap@0.0.2 </tspan>
<tspan x="10" y="1514">  │     ├── decamelize@1.2.0 </tspan>
<tspan x="10" y="1530">  │     └── window-size@0.1.0 </tspan>
<tspan x="10" y="1546">  └─┬ walk@2.3.1 </tspan>
<tspan x="10" y="1562">    └─┬ forEachAsync@2.2.1 </tspan>
<tspan x="10" y="1578">      └── sequence@2.2.1</tspan>
</text>
</svg>
